<svg xmlns="http://www.w3.org/2000/svg" width="19.25" height="19.219" viewBox="0 0 19.25 19.219">
  <metadata><?xpacket begin="﻿" id="W5M0MpCehiHzreSzNTczkc9d"?>
<x:xmpmeta xmlns:x="adobe:ns:meta/" x:xmptk="Adobe XMP Core 5.6-c138 79.159824, 2016/09/14-01:09:01        ">
   <rdf:RDF xmlns:rdf="http://www.w3.org/1999/02/22-rdf-syntax-ns#">
      <rdf:Description rdf:about=""/>
   </rdf:RDF>
</x:xmpmeta>
                                                                                                    
                                                                                                    
                                                                                                    
                                                                                                    
                                                                                                    
                                                                                                    
                                                                                                    
                                                                                                    
                                                                                                    
                                                                                                    
                                                                                                    
                                                                                                    
                                                                                                    
                                                                                                    
                                                                                                    
                                                                                                    
                                                                                                    
                                                                                                    
                                                                                                    
                                                                                                    
                           
<?xpacket end="w"?></metadata>
<defs>
    <style>
      .cls-1 {
        fill: #fff;
        fill-rule: evenodd;
      }
    </style>
  </defs>
  <path id="phone" class="cls-1" d="M330.072,149.754l1.782,1.778c0.985,0.981.511,2.153,0,3.554a41.989,41.989,0,0,1-5.618,7.325,38.065,38.065,0,0,1-7.3,5.561c-1.3.667-2.58,0.981-3.565,0l-1.782-1.778a1.17,1.17,0,0,1,0-1.777l3.565-2.666a1.345,1.345,0,0,1,1.782,0h0l1.054,1.051a35.671,35.671,0,0,0,3.847-3.272,30.718,30.718,0,0,0,2.873-3.356l-1.091-1.088a1.335,1.335,0,0,1,0-1.777l2.673-3.555a1.262,1.262,0,0,1,1.782,0m-1.728,6.275-1.431-1.428a0.85,0.85,0,0,1,0-1.131l1.7-2.261a0.723,0.723,0,0,1,1.134,0l1.134,1.131a1.817,1.817,0,0,1,.081,1.858,37.546,37.546,0,0,1-5.346,7.109c-2.256,2.44-7.574,5.776-7.574,5.776a2.284,2.284,0,0,1-1.864-.08l-1.134-1.132a0.849,0.849,0,0,1,0-1.131l2.269-1.7a0.855,0.855,0,0,1,1.134,0l1.4,1.393C320.174,164.206,325.424,160.765,328.344,156.029Z" transform="translate(-313.188 -149.375)"/>
</svg>
