<?xml version="1.0" encoding="UTF-8"?>
<!DOCTYPE svg PUBLIC "-//W3C//DTD SVG 1.1//EN" "http://www.w3.org/Graphics/SVG/1.1/DTD/svg11.dtd">
<!-- Creator: CorelDRAW X7 -->
<svg xmlns="http://www.w3.org/2000/svg" xml:space="preserve" width="100mm" height="99.9959mm" version="1.1" style="shape-rendering:geometricPrecision; text-rendering:geometricPrecision; image-rendering:optimizeQuality; fill-rule:evenodd; clip-rule:evenodd"
viewBox="0 0 619 619"
 xmlns:xlink="http://www.w3.org/1999/xlink">
 <defs>
  <style type="text/css">
   <![CDATA[
    .fil0 {fill:#282828}
   ]]>
  </style>
 </defs>
 <g id="Слой_x0020_1">
  <metadata id="CorelCorpID_0Corel-Layer"/>
  <path class="fil0" d="M310 413c-57,0 -104,-46 -104,-103 0,-57 47,-104 104,-104 57,0 103,47 103,104 0,57 -46,103 -103,103zm202 -269c0,21 -16,38 -37,38 -20,0 -37,-17 -37,-38 0,-20 17,-37 37,-37 21,0 37,17 37,37zm-202 -144c-84,0 -95,0 -128,2 -33,1 -55,7 -75,14 -21,8 -38,19 -55,36 -17,17 -28,34 -36,55 -7,20 -13,42 -14,75 -2,33 -2,44 -2,128 0,84 0,94 2,127 1,33 7,56 14,76 8,20 19,37 36,54 17,18 34,28 55,36 20,8 42,13 75,15 33,1 44,1 128,1 84,0 94,0 127,-1 33,-2 56,-7 76,-15 20,-8 37,-18 54,-36 18,-17 28,-34 36,-54 8,-20 13,-43 15,-76 1,-33 1,-43 1,-127 0,-84 0,-95 -1,-128 -2,-33 -7,-55 -15,-75 -8,-21 -18,-38 -36,-55 -17,-17 -34,-28 -54,-36 -20,-7 -43,-13 -76,-14 -33,-2 -43,-2 -127,-2l0 0zm0 56c82,0 92,0 125,2 30,1 46,6 57,10 15,6 25,13 36,23 11,11 18,22 23,36 4,11 9,27 11,58 1,32 2,42 2,125 0,82 -1,92 -2,125 -2,30 -7,46 -11,57 -5,15 -12,25 -23,36 -11,11 -21,18 -36,23 -11,4 -27,9 -57,11 -33,1 -43,2 -125,2 -83,0 -93,-1 -125,-2 -31,-2 -47,-7 -58,-11 -14,-5 -25,-12 -36,-23 -10,-11 -17,-21 -23,-36 -4,-11 -9,-27 -10,-57 -2,-33 -2,-43 -2,-125 0,-83 0,-93 2,-125 1,-31 6,-47 10,-58 6,-14 13,-25 23,-36 11,-10 22,-17 36,-23 11,-4 27,-9 58,-10 32,-2 42,-2 125,-2zm0 95c-88,0 -159,71 -159,159 0,88 71,159 159,159 88,0 159,-71 159,-159 0,-88 -71,-159 -159,-159z"/>
 </g>
</svg>
