<?xml version="1.0" encoding="UTF-8"?>
<!DOCTYPE svg PUBLIC "-//W3C//DTD SVG 1.1//EN" "http://www.w3.org/Graphics/SVG/1.1/DTD/svg11.dtd">
<!-- Creator: CorelDRAW X7 -->
<svg xmlns="http://www.w3.org/2000/svg" xml:space="preserve" width="99.9997mm" height="86.4007mm" version="1.1" style="shape-rendering:geometricPrecision; text-rendering:geometricPrecision; image-rendering:optimizeQuality; fill-rule:evenodd; clip-rule:evenodd"
viewBox="0 0 438 379"
 xmlns:xlink="http://www.w3.org/1999/xlink">
 <defs>
  <style type="text/css">
   <![CDATA[
    .fil0 {fill:#282828}
   ]]>
  </style>
 </defs>
 <g id="Слой_x0020_1">
  <metadata id="CorelCorpID_0Corel-Layer"/>
  <path class="fil0" d="M438 13l-69 350c0,0 -10,24 -37,12l-98 -75 -63 57c0,0 -5,4 -11,2 0,0 -4,-1 -10,-19 -6,-18 -36,-115 -36,-115l1 0 -1 0 -97 -33c0,0 -15,-6 -17,-17 -1,-12 17,-18 17,-18l389 -153c0,0 32,-14 32,9zm-76 62c1,-8 -13,0 -13,0l-221 141c11,36 23,76 35,116l10 -82c0,0 177,-160 185,-166 7,-7 4,-9 4,-9z"/>
 </g>
</svg>
