<?xml version="1.0" encoding="UTF-8"?>
<!DOCTYPE svg PUBLIC "-//W3C//DTD SVG 1.1//EN" "http://www.w3.org/Graphics/SVG/1.1/DTD/svg11.dtd">
<!-- Creator: CorelDRAW X7 -->
<svg xmlns="http://www.w3.org/2000/svg" xml:space="preserve" width="99.9998mm" height="100.451mm" version="1.1" style="shape-rendering:geometricPrecision; text-rendering:geometricPrecision; image-rendering:optimizeQuality; fill-rule:evenodd; clip-rule:evenodd"
viewBox="0 0 513 515"
 xmlns:xlink="http://www.w3.org/1999/xlink">
 <defs>
  <style type="text/css">
   <![CDATA[
    .fil0 {fill:#282828}
   ]]>
  </style>
 </defs>
 <g id="Слой_x0020_1">
  <metadata id="CorelCorpID_0Corel-Layer"/>
  <path class="fil0" d="M257 467l0 0c-38,0 -75,-10 -108,-29l-7 -5 -81 21 22 -78 -5 -8c-22,-34 -33,-73 -33,-113 0,-117 95,-212 212,-212 57,0 110,22 150,62 40,40 63,94 62,150 0,117 -95,212 -212,212zm117 -158c-7,-4 -38,-19 -44,-21 -6,-2 -10,-3 -14,3 -4,6 -17,21 -20,25 -4,4 -8,5 -14,2 -7,-4 -27,-10 -52,-32 -18,-17 -31,-38 -35,-44 -4,-7 0,-10 3,-13 3,-3 6,-8 9,-11 4,-4 5,-7 7,-11 2,-4 1,-8 -1,-11 -1,-3 -14,-35 -19,-48 -6,-12 -11,-10 -15,-10 -3,-1 -8,-1 -12,-1 -4,0 -11,2 -17,8 -6,7 -22,22 -22,53 0,32 23,62 26,66 3,5 45,69 109,97 15,6 27,10 36,13 15,5 29,4 40,3 12,-2 38,-16 43,-31 6,-15 6,-27 4,-30 -2,-3 -6,-4 -12,-7zm64 -234c-48,-48 -112,-75 -181,-75 -140,0 -255,114 -255,255 0,45 12,89 34,128l-36 132 135 -36c38,21 80,31 122,31l0 0c141,0 256,-114 256,-255 0,-68 -27,-132 -75,-180z"/>
 </g>
</svg>
