<?xml version="1.0" encoding="UTF-8"?>
<!DOCTYPE svg PUBLIC "-//W3C//DTD SVG 1.1//EN" "http://www.w3.org/Graphics/SVG/1.1/DTD/svg11.dtd">
<!-- Creator: CorelDRAW X7 -->
<svg xmlns="http://www.w3.org/2000/svg" xml:space="preserve" width="100mm" height="70.3321mm" version="1.1" style="shape-rendering:geometricPrecision; text-rendering:geometricPrecision; image-rendering:optimizeQuality; fill-rule:evenodd; clip-rule:evenodd"
viewBox="0 0 462 325"
 xmlns:xlink="http://www.w3.org/1999/xlink">
 <defs>
  <style type="text/css">
   <![CDATA[
    .fil0 {fill:#282828}
   ]]>
  </style>
 </defs>
 <g id="Слой_x0020_1">
  <metadata id="CorelCorpID_0Corel-Layer"/>
  <path class="fil0" d="M457 70c0,0 -4,-32 -18,-46 -18,-18 -37,-18 -46,-19 -65,-5 -162,-5 -162,-5l0 0c0,0 -97,0 -162,5 -9,1 -28,1 -46,19 -14,14 -18,46 -18,46 0,0 -5,37 -5,75l0 35c0,37 5,75 5,75 0,0 4,31 18,45 18,19 41,18 51,20 37,4 157,5 157,5 0,0 97,0 162,-5 9,-1 28,-1 46,-20 14,-14 18,-45 18,-45 0,0 5,-38 5,-75l0 -35c0,-38 -5,-75 -5,-75zm-274 152l125 -64 -125 -65 0 129z"/>
 </g>
</svg>
