<?xml version="1.0" encoding="UTF-8"?>
<!DOCTYPE svg PUBLIC "-//W3C//DTD SVG 1.1//EN" "http://www.w3.org/Graphics/SVG/1.1/DTD/svg11.dtd">
<!-- Creator: CorelDRAW X7 -->
<svg xmlns="http://www.w3.org/2000/svg" xml:space="preserve" width="100mm" height="100mm" version="1.1" style="shape-rendering:geometricPrecision; text-rendering:geometricPrecision; image-rendering:optimizeQuality; fill-rule:evenodd; clip-rule:evenodd"
viewBox="0 0 1009 1009"
 xmlns:xlink="http://www.w3.org/1999/xlink">
 <defs>
  <style type="text/css">
   <![CDATA[
    .fil0 {fill:#282828}
    .fil1 {fill:white;fill-rule:nonzero}
   ]]>
  </style>
 </defs>
 <g id="Слой_x0020_1">
  <metadata id="CorelCorpID_0Corel-Layer"/>
  <path class="fil0" d="M504 0c279,0 505,226 505,504 0,279 -226,505 -505,505 -278,0 -504,-226 -504,-505 0,-278 226,-504 504,-504z"/>
  <path class="fil1" d="M352 492c8,-11 18,-22 28,-31l0 0c14,-13 26,-21 37,-29 21,-15 32,-22 23,-43 -14,4 -29,10 -42,18 -15,7 -28,17 -41,28 -12,11 -23,24 -33,37 -9,14 -18,28 -24,44 -11,28 -17,56 -16,84 0,29 6,58 17,85 11,26 27,50 48,71 20,20 44,36 71,47 28,12 56,17 84,17 30,0 58,-6 85,-17 26,-11 51,-28 71,-48 20,-20 36,-44 48,-72 9,-23 14,-48 16,-72 1,-25 -2,-49 -9,-73 -5,-19 -14,-38 -25,-56 -11,-17 -24,-33 -39,-47l-4 -3 3 -3 130 -133 -96 -12 -3 -1 -1 -2 -23 -55 -55 23 -3 1 -2 -2 -77 -59 0 130 34 14 0 -65 0 -10 8 6 33 25 39 -16 5 -2 1 4 17 40 41 5 10 1 -7 7 -92 94 0 0c-1,1 -2,2 -2,3 -3,3 -4,7 -4,10 1,4 2,7 5,10 1,1 2,2 3,3 18,12 32,27 44,44 12,17 22,36 27,56 6,20 9,40 7,61 -1,21 -5,41 -13,61 -10,23 -24,44 -40,60 -18,18 -38,32 -60,41l0 0c-23,9 -47,14 -72,14 -23,0 -47,-4 -71,-14 -23,-9 -43,-23 -60,-40l0 0c-18,-17 -31,-37 -41,-60 -9,-22 -14,-46 -14,-71 0,-24 4,-48 14,-71 5,-13 12,-26 20,-37z"/>
 </g>
</svg>
