<?xml version="1.0" encoding="UTF-8"?>
<!DOCTYPE svg PUBLIC "-//W3C//DTD SVG 1.1//EN" "http://www.w3.org/Graphics/SVG/1.1/DTD/svg11.dtd">
<!-- Creator: CorelDRAW X7 -->
<svg xmlns="http://www.w3.org/2000/svg" xml:space="preserve" width="100mm" height="42.7491mm" version="1.1" style="shape-rendering:geometricPrecision; text-rendering:geometricPrecision; image-rendering:optimizeQuality; fill-rule:evenodd; clip-rule:evenodd"
viewBox="0 0 2423 1036"
 xmlns:xlink="http://www.w3.org/1999/xlink">
 <defs>
  <style type="text/css">
   <![CDATA[
    .fil0 {fill:#D1B371;fill-rule:nonzero}
   ]]>
  </style>
 </defs>
 <g id="Слой_x0020_1">
  <metadata id="CorelCorpID_0Corel-Layer"/>
  <path class="fil0" d="M849 713l274 0 0 31 -95 0c-15,0 -26,12 -26,26l0 260 -32 0 0 -286 -121 0 0 -31zm1041 190l0 58 -8 0 0 -47c0,-2 -2,-4 -4,-4l-30 0 0 51 -8 0 0 -58 50 0zm-104 58l0 -42 -20 33c-2,2 -5,2 -6,0l-20 -33 0 42 -8 0 0 -58 7 0 24 41 24 -41 7 0 0 58 -8 0zm-126 1c-6,0 -12,-2 -16,-4 -5,-3 -9,-6 -11,-11 -3,-4 -4,-9 -4,-15 0,-6 1,-11 4,-15 2,-5 6,-8 11,-11 4,-2 10,-4 16,-4 5,0 11,2 15,4 5,3 9,6 11,11 3,4 4,9 4,15 0,6 -1,11 -4,15 -2,5 -6,8 -11,11 -4,2 -10,4 -15,4zm0 -8c4,0 8,-1 11,-3 3,-2 6,-4 8,-8 2,-3 3,-7 3,-11 0,-4 -1,-8 -3,-11 -2,-4 -5,-6 -8,-8 -3,-2 -7,-3 -11,-3 -5,0 -9,1 -12,3 -3,2 -6,4 -8,8 -2,3 -3,7 -3,11 0,4 1,8 3,11 2,4 5,6 8,8 3,2 7,3 12,3zm-94 -19l-8 0c-2,0 -4,2 -4,4l0 22 -8 0 0 -58 8 0 0 25 13 0 18 -25 9 0 -21 28 22 30 -10 0 -19 -26zm781 -154l0 58 -8 0 0 -13c0,-2 -2,-4 -4,-4l-12 0c-1,0 -2,0 -3,0l-11 17 -9 0 13 -18c-4,-2 -7,-4 -10,-7 -2,-3 -3,-7 -3,-12 0,-7 2,-12 6,-15 5,-4 10,-6 17,-6l24 0zm-39 21c0,4 2,7 4,10 3,2 6,3 11,3l16 0 0 -27 -15 0c-5,0 -9,1 -12,4 -2,2 -4,5 -4,10zm-56 25c-1,-1 -2,-3 -4,-3l-28 0 -6 15 -9 0 26 -58 9 0 26 58 -9 0 -5 -12zm-4 -9l-13 -28 -12 28 25 0zm-81 -37l0 58 -9 0 0 -22c0,-2 -1,-4 -3,-4l-30 0 0 26 -8 0 0 -58 8 0 0 25 33 0 0 -25 9 0zm-115 0c13,0 24,6 24,20 0,14 -11,20 -24,20l-11 0c-2,0 -3,2 -3,4l0 14 -9 0 0 -58 23 0zm0 33c8,0 16,-3 16,-13 0,-9 -8,-13 -16,-13l-14 0 0 26 14 0zm-166 -33l0 58 -7 0 0 -47c0,-2 -2,-4 -4,-4l-22 0c0,7 0,6 0,15 0,14 -3,28 -8,33 -3,4 -10,4 -15,3 0,-8 7,-4 11,-9 3,-4 5,-13 5,-27 0,-12 0,-12 0,-22l40 0zm-88 51l0 7 -42 0 0 -58 41 0 0 7 -33 0 0 18 29 0 0 7 -25 0c-2,0 -4,2 -4,4l0 15 34 0zm-96 -23c7,2 11,7 11,14 0,12 -11,16 -21,16l-26 0 0 -58 24 0c10,0 21,4 21,15 0,6 -4,11 -9,13zm-28 -2l16 0c6,0 13,-3 13,-10 0,-7 -7,-9 -13,-9l-16 0 0 19zm18 25c9,0 14,-3 14,-9 0,-8 -8,-10 -14,-10l-15 0c-2,0 -3,1 -3,3l0 16 18 0zm-98 -52c6,0 11,2 15,4 5,3 8,6 11,11 2,4 4,9 4,15 0,6 -2,11 -4,15 -3,5 -6,8 -11,11 -4,2 -9,4 -15,4 -5,0 -10,-2 -14,-4 -4,-2 -8,-5 -10,-9 -3,-4 -4,-9 -5,-14l-7 0c-2,0 -4,2 -4,4l0 22 -8 0 0 -58 8 0 0 25 11 0c1,-5 2,-9 5,-13 3,-4 6,-7 10,-9 5,-2 9,-4 14,-4zm0 52c4,0 8,-1 11,-3 3,-2 6,-4 8,-8 1,-3 2,-7 2,-11 0,-4 -1,-8 -2,-11 -2,-4 -5,-6 -8,-8 -3,-2 -7,-3 -11,-3 -4,0 -7,1 -10,3 -4,2 -6,4 -8,8 -2,3 -3,7 -3,11 0,4 1,8 3,11 2,4 4,6 8,8 3,2 6,3 10,3zm669 71l0 58 -8 0 0 -13c0,-2 -2,-4 -4,-4l-12 0c-1,0 -2,0 -3,0l-11 17 -9 0 13 -18c-4,-2 -7,-4 -10,-7 -2,-4 -3,-8 -3,-12 0,-7 2,-12 6,-15 5,-4 10,-6 17,-6l24 0zm-39 21c0,4 2,7 4,10 3,2 6,3 11,3l16 0 0 -27 -15 0c-5,0 -9,1 -12,4 -2,2 -4,5 -4,10zm-147 -21l0 58 -8 0 0 -22c0,-2 -1,-4 -4,-4l-29 0 0 26 -8 0 0 -58 8 0 0 25 33 0 0 -25 8 0zm-102 46c0,-2 -2,-3 -3,-3l-29 0 -6 15 -9 0 27 -58 8 0 26 58 -9 0 -5 -12zm-4 -9l-12 -29 -13 29 25 0zm153 -37l8 0 0 45 33 -44c2,-3 9,-2 9,3l0 54 -8 0 0 -45 -35 45 -7 0 0 -58zm-191 -122l8 0 0 45 33 -44c3,-3 9,-2 9,3l0 54 -8 0 0 -45 -34 45 -8 0 0 -58zm-1344 107c-21,0 -29,20 -24,34 19,48 67,81 122,81 63,0 89,-45 113,-14 -32,32 -81,49 -124,47 -39,-3 -76,-19 -106,-48 -53,-53 -62,-134 -27,-196 28,-51 82,-85 144,-85 94,0 163,74 164,158 0,18 -11,23 -26,23l-236 0zm-32 -32l257 0c-5,-68 -67,-115 -128,-116 -65,-1 -122,52 -129,116zm792 -552c-36,0 -69,15 -93,39l0 0c-23,23 -38,56 -38,92 0,36 15,68 38,92l0 0c24,24 57,38 93,38 36,0 68,-14 92,-38l0 0c23,-24 38,-56 38,-92 0,-36 -15,-69 -38,-92l0 0c-24,-24 -56,-39 -92,-39zm-115 16l0 0c29,-30 70,-48 115,-48 45,0 85,18 115,48l0 0c29,29 47,70 47,115 0,45 -18,85 -47,115l0 0c-30,29 -70,48 -115,48 -45,0 -86,-19 -115,-48l0 0c-30,-30 -48,-70 -48,-115 0,-45 18,-86 48,-115zm-28 470c0,14 12,26 26,26l98 0c59,0 107,48 107,107 0,58 -48,107 -107,107l-139 0 -16 0 0 -16 0 -301 31 0 0 77zm124 58l-124 0 0 150 124 0c41,0 75,-34 75,-75 0,-41 -34,-75 -75,-75zm1062 -332c0,-15 -12,-26 -26,-26l-90 0c-18,25 -36,50 -55,75 -22,30 -40,36 -61,28l80 -107c-46,-13 -79,-55 -79,-103 0,-59 48,-107 107,-107l140 0 15 0 0 16 0 301 -31 0 0 -77zm-124 -58l124 0 0 -150 -124 0c-41,0 -75,34 -75,75 0,41 34,75 75,75zm-755 -182l274 0 0 32 -95 0c-15,0 -26,11 -26,26l0 259 -32 0 0 -285 -121 0 0 -32zm-413 317l0 -259c0,-15 -12,-26 -26,-26l-132 0c0,60 1,146 -16,207 -16,58 -46,96 -103,80 -1,-33 14,-14 44,-36 13,-10 22,-29 28,-52 16,-58 16,-147 15,-205 0,-14 11,-26 26,-26l196 0 0 317 -32 0zm-707 147c-72,0 -131,59 -131,131 0,73 59,132 131,132 64,0 90,-45 114,-14 -29,29 -69,46 -114,46 -90,0 -164,-73 -164,-164 0,-90 74,-164 164,-164 45,0 85,18 114,46 -25,34 -50,-13 -114,-13zm269 -436c-36,0 -68,15 -92,39l0 0c-24,23 -38,56 -38,92 0,36 15,68 38,92l0 0c24,24 56,38 92,38 36,0 69,-14 93,-38l0 0c23,-24 38,-56 38,-92 0,-36 -15,-69 -38,-92l0 0c-24,-24 -57,-39 -93,-39zm-115 16l0 0c30,-30 70,-48 115,-48 45,0 86,18 115,48l0 0c30,29 48,70 48,115 0,45 -18,85 -48,115l0 0c-29,29 -70,48 -115,48 -45,0 -85,-19 -115,-48l0 0c-29,-30 -47,-70 -47,-115 0,-45 18,-86 47,-115zm1504 123l-121 0c-21,0 -41,8 -55,19 -28,22 -25,69 3,90 17,12 40,17 62,17 55,0 82,-30 111,-72l0 -54zm-25 -32c14,0 25,-11 25,-26l0 -2c0,-69 -74,-88 -132,-74 -48,12 -75,35 -89,7 25,-18 53,-32 82,-39 79,-19 172,16 172,106 0,70 0,143 0,213 -22,2 -32,-14 -33,-29l0 -16c-29,34 -65,50 -111,50 -28,0 -59,-7 -81,-23 -46,-34 -49,-106 -4,-141 20,-16 46,-26 73,-26l98 0zm-1955 -96c9,-12 19,-23 29,-33l0 0c15,-12 28,-22 39,-29 22,-16 33,-24 24,-46 -15,5 -30,11 -44,19 -15,8 -29,18 -42,30 -13,11 -25,24 -35,38 -10,14 -18,29 -25,46 -12,28 -17,58 -17,87 0,31 6,60 18,88 11,27 28,53 50,74 20,21 45,38 74,49 29,12 58,18 88,18 30,-1 60,-7 87,-18 28,-12 53,-29 74,-50 21,-21 38,-46 50,-75 10,-24 15,-49 17,-74 1,-26 -2,-52 -9,-76 -6,-21 -15,-40 -26,-58 -12,-18 -25,-35 -41,-49l-4 -3 3 -4 136 -138 -101 -13 -3 0 -1 -3 -24 -57 -57 24 -3 1 -2 -2 -80 -61 0 135 35 15 0 -68 0 -10 8 6 34 26 42 -17 4 -2 2 4 17 42 43 5 10 1 -7 7 -96 98 0 0c-1,1 -1,2 -2,3 -3,4 -4,7 -4,11 1,4 2,7 6,10 1,1 2,2 3,3 18,13 33,28 45,46 13,17 23,37 29,58 6,20 8,42 7,64 -1,21 -6,42 -14,63 -10,24 -25,45 -42,63 -18,18 -39,32 -62,42l0 0c-24,9 -49,15 -74,15 -25,0 -50,-5 -74,-15 -25,-10 -46,-24 -63,-41l0 0c-18,-18 -33,-40 -42,-63 -10,-23 -15,-48 -15,-74 0,-24 4,-50 14,-74 6,-14 13,-26 21,-38z"/>
 </g>
</svg>
