<svg xmlns="http://www.w3.org/2000/svg" width="13.594" height="19.813" viewBox="0 0 13.594 19.813">
  <metadata><?xpacket begin="﻿" id="W5M0MpCehiHzreSzNTczkc9d"?>
<x:xmpmeta xmlns:x="adobe:ns:meta/" x:xmptk="Adobe XMP Core 5.6-c138 79.159824, 2016/09/14-01:09:01        ">
   <rdf:RDF xmlns:rdf="http://www.w3.org/1999/02/22-rdf-syntax-ns#">
      <rdf:Description rdf:about=""/>
   </rdf:RDF>
</x:xmpmeta>
                                                                                                    
                                                                                                    
                                                                                                    
                                                                                                    
                                                                                                    
                                                                                                    
                                                                                                    
                                                                                                    
                                                                                                    
                                                                                                    
                                                                                                    
                                                                                                    
                                                                                                    
                                                                                                    
                                                                                                    
                                                                                                    
                                                                                                    
                                                                                                    
                                                                                                    
                                                                                                    
                           
<?xpacket end="w"?></metadata>
<defs>
    <style>
      .cls-1 {
        fill: #fff;
        fill-rule: evenodd;
      }
    </style>
  </defs>
  <path id="user" class="cls-1" d="M326.018,114.6h-6.192a3.715,3.715,0,0,1-3.716-3.716V108.41a3.7,3.7,0,0,1,2.508-3.5,6.6,6.6,0,0,1-1.27-3.934c0-3.419,2.5-6.192,5.574-6.192s5.573,2.772,5.573,6.192a6.6,6.6,0,0,1-1.269,3.934,3.7,3.7,0,0,1,2.507,3.5v2.477A3.715,3.715,0,0,1,326.018,114.6Zm1.238-13.624c0-2.735-1.94-4.954-4.334-4.954s-4.335,2.218-4.335,4.954,1.941,4.954,4.335,4.954S327.256,103.716,327.256,100.979Zm1.239,7.741a2.845,2.845,0,0,0-2.338-2.7,5.1,5.1,0,0,1-6.47,0,2.846,2.846,0,0,0-2.339,2.7v1.858a2.922,2.922,0,0,0,3.04,2.786h5.067a2.921,2.921,0,0,0,3.04-2.786V108.72Z" transform="translate(-316.125 -94.781)"/>
</svg>
