<svg xmlns="http://www.w3.org/2000/svg" width="19.81" height="19.812" viewBox="0 0 19.81 19.812">
  <defs>
    <style>
      .cls-1 {
        fill: #fff;
        fill-rule: evenodd;
      }
    </style>
  </defs>
  <path id="present" class="cls-1" d="M1143.59,202.025v9.908a2.477,2.477,0,0,1-2.48,2.476h-12.38a2.477,2.477,0,0,1-2.48-2.476v-9.908a1.236,1.236,0,0,1-1.24-1.239v-1.238a1.236,1.236,0,0,1,1.24-1.239h4.68a2.385,2.385,0,0,1-.35-1.238,2.471,2.471,0,0,1,4.34-1.623,2.451,2.451,0,0,1,1.86-.854,2.466,2.466,0,0,1,2.13,3.715h4.68a1.243,1.243,0,0,1,1.24,1.239v1.238A1.243,1.243,0,0,1,1143.59,202.025Zm-2.48,11.146a1.243,1.243,0,0,0,1.24-1.238v-3.716h-6.81v4.954h5.57Zm-5.57-6.192h6.81v-4.954h-6.81v4.954Zm-8.05,4.954a1.236,1.236,0,0,0,1.24,1.238h5.57v-4.954h-6.81v3.716Zm0-4.954h6.81v-4.954h-6.81v4.954Zm5.57-11.147a1.239,1.239,0,1,0,1.24,1.239A1.243,1.243,0,0,0,1133.06,195.832Zm3.72,0a1.239,1.239,0,1,0,1.23,1.239A1.236,1.236,0,0,0,1136.78,195.832Zm6.19,3.716h-16.1a0.619,0.619,0,1,0,0,1.238h16.1A0.619,0.619,0,1,0,1142.97,199.548Z" transform="translate(-1125 -194.594)"/>
</svg>
