<svg xmlns="http://www.w3.org/2000/svg" width="12.375" height="19.813" viewBox="0 0 12.375 19.813">
  <defs>
    <style>
      .cls-1 {
        fill: #aaa;
        fill-rule: evenodd;
      }
    </style>
  </defs>
  <path id="lock" class="cls-1" d="M817.524,348.6a6.185,6.185,0,0,1-4.954-9.9v-4.965a4.954,4.954,0,0,1,9.908,0v4.965A6.185,6.185,0,0,1,817.524,348.6Zm3.715-14.862a3.716,3.716,0,0,0-7.431,0v3.724a6.159,6.159,0,0,1,7.431,0v-3.724Zm1.239,8.67a4.954,4.954,0,1,1-4.954-4.954A5.078,5.078,0,0,1,822.478,342.411Zm-4.954,2.477a0.62,0.62,0,0,1-.619-0.62v-2.477a0.619,0.619,0,0,1,1.238,0v2.477A0.62,0.62,0,0,1,817.524,344.888Z" transform="translate(-811.344 -328.781)"/>
</svg>
