<svg xmlns="http://www.w3.org/2000/svg" width="13.594" height="19.813" viewBox="0 0 13.594 19.813">
  <defs>
    <style>
      .cls-1 {
        fill: #aaa;
        fill-rule: evenodd;
      }
    </style>
  </defs>
  <path id="user" class="cls-1" d="M617.018,338.6h-6.192a3.715,3.715,0,0,1-3.716-3.715v-2.477a3.7,3.7,0,0,1,2.508-3.5,6.593,6.593,0,0,1-1.27-3.933c0-3.42,2.5-6.193,5.574-6.193s5.573,2.773,5.573,6.193a6.592,6.592,0,0,1-1.269,3.933,3.7,3.7,0,0,1,2.507,3.5v2.477A3.715,3.715,0,0,1,617.018,338.6Zm1.238-13.623c0-2.736-1.94-4.954-4.334-4.954s-4.335,2.218-4.335,4.954,1.941,4.954,4.335,4.954S618.256,327.716,618.256,324.98Zm1.239,7.74a2.845,2.845,0,0,0-2.338-2.7,5.1,5.1,0,0,1-6.47,0,2.846,2.846,0,0,0-2.339,2.7v1.858a2.923,2.923,0,0,0,3.04,2.787h5.067a2.922,2.922,0,0,0,3.04-2.787V332.72Z" transform="translate(-607.125 -318.781)"/>
</svg>
